<svg viewBox="0 0 1023 281" fill="none" xmlns="http://www.w3.org/2000/svg">
<g clip-path="url(#clip0)">
<path d="M140.3 159.1H80.3V218.6H140.3V159.1Z" fill="#A70584"/>
<path d="M140 78.4H80V138.4H140V78.4Z" fill="#36B587"/>
<path d="M60 158.4H0V218.4H60V158.4Z" fill="#FAD05B"/>
<path d="M319.1 74.6C319.1 116 285.8 149.2 242.9 149.2H210.2V217.6H160.4V0H242.8C285.9 0 319.1 33.3 319.1 74.6ZM269.4 74.6C269.4 58.7 258.2 46.6 243 46.6H210.3V102.6H243C258.2 102.6 269.4 90.5 269.4 74.6Z" fill="black"/>
<path d="M492.7 58V217.6H444.8V202.6C434.3 214.7 418.6 222.1 397.2 222.1C355.4 222.1 320.9 185.4 320.9 137.8C320.9 90.2 355.4 53.5 397.2 53.5C418.6 53.5 434.2 60.8 444.8 73V58H492.7ZM444.8 137.8C444.8 113.9 428.8 98.9 406.8 98.9C384.8 98.9 368.8 113.9 368.8 137.8C368.8 161.7 384.8 176.8 406.8 176.8C428.8 176.8 444.8 161.7 444.8 137.8Z" fill="black"/>
<path d="M674.6 58L620.4 211.8C602.6 262.2 574.4 282.2 530 280V235.6C552.2 235.6 562.7 228.6 569.6 209.3L506.6 58H558.9L594.1 155L624 58H674.6Z" fill="black"/>
<path d="M851.9 74.6C851.9 116 818.6 149.2 775.7 149.2H743V217.6H693.2V0H775.6C818.6 0 851.9 33.3 851.9 74.6ZM802.2 74.6C802.2 58.7 791 46.6 775.8 46.6H743.1V102.6H775.8C791 102.6 802.2 90.5 802.2 74.6Z" fill="black"/>
<path d="M858.2 140C858.2 93.7 894.9 57.9 940.6 57.9C986.3 57.9 1023 93.6 1023 140C1023 186.4 986.3 222.1 940.6 222.1C894.9 222.1 858.2 186.3 858.2 140ZM976.3 140C976.3 117.9 960.8 103.3 940.5 103.3C920.3 103.3 904.7 117.9 904.7 140C904.7 162.1 920.2 176.7 940.5 176.7C960.8 176.7 976.3 162 976.3 140Z" fill="black"/>
</g>
<defs>
<clipPath id="clip0">
<rect width="1023" height="280.1" fill="white"/>
</clipPath>
</defs>
</svg>
